<?xml version="1.0" encoding="UTF-8"?><svg id="Layer_2" xmlns="http://www.w3.org/2000/svg" viewBox="0 0 707.156 882.047"><g id="Layer_1-2"><path d="M261.406,0L0,5.672v871.328c19.781,0,53.656.844,101.656,2.531,48.406,1.672,88.172,2.516,119.328,2.516,147.328,0,264.141-37.875,350.422-113.641,90.5-79.562,135.75-192.156,135.75-337.797C707.156,143.547,558.562,0,261.406,0ZM430.315,671.413h-217.565l44.051-198.412c-17.236-11.309-31.281-26.989-40.578-45.496-8.121-15.869-12.674-34.013-12.674-52.977,0-45.684,26.168-85.442,64.285-105.046,16.131-8.3,34.376-12.943,53.697-12.943,19.427,0,37.846,4.736,54.073,13.131,37.934,19.684,63.923,59.354,63.923,104.857,0,19.058-4.561,37.108-12.676,52.977-9.297,18.507-23.343,34.187-40.577,45.496l44.043,198.412Z" fill="#b38f47"/></g></svg>