<?xml version="1.0" encoding="UTF-8"?>
<svg version="1.1" xmlns="http://www.w3.org/2000/svg" width="171" height="172">
<path d="M0 0 C0.99 0.33 1.98 0.66 3 1 C3.02505615 1.62455078 3.0501123 2.24910156 3.07592773 2.89257812 C3.19300381 5.76187123 3.31521751 8.63092425 3.4375 11.5 C3.47681641 12.48226563 3.51613281 13.46453125 3.55664062 14.4765625 C3.79760617 20.0373059 4.21921169 25.48855309 5 31 C6.485 31.495 6.485 31.495 8 32 C7.67 33.32 7.34 34.64 7 36 C8.98 36.495 8.98 36.495 11 37 C11.13301073 47.34773251 11.26351591 57.69549367 11.39115143 68.04329395 C11.45054291 72.85252705 11.51067616 77.66174804 11.57275391 82.47094727 C11.88850789 106.98201786 12.07743904 131.48682061 12 156 C13.32 156 14.64 156 16 156 C15.99555878 155.23436234 15.99111755 154.46872467 15.98654175 153.67988586 C15.94642686 146.45582408 15.91599623 139.2318165 15.89637566 132.00767231 C15.88594935 128.2938848 15.87181131 124.58018952 15.84912109 120.86645508 C15.82735144 117.28085107 15.8154227 113.69533565 15.81024551 110.10967064 C15.80655715 108.74336541 15.79935466 107.3770649 15.78853989 106.0107975 C15.77397104 104.09359105 15.77318262 102.176295 15.77294922 100.2590332 C15.768508 99.16871292 15.76406677 98.07839264 15.75949097 96.95503235 C16.00597868 93.92654253 16.71974491 91.73867898 18 89 C18.66 89 19.32 89 20 89 C20.33 83.06 20.66 77.12 21 71 C21.99 71 22.98 71 24 71 C24 74.3 24 77.6 24 81 C24.66 81 25.32 81 26 81 C26 83.64 26 86.28 26 89 C26.99 89 27.98 89 29 89 C29 111.11 29 133.22 29 156 C30.32 156 31.64 156 33 156 C33 139.17 33 122.34 33 105 C39.22995144 105.69221683 44.14336425 106.4027357 50 108 C50 109.65 50 111.3 50 113 C51.65 113.33 53.3 113.66 55 114 C55 127.86 55 141.72 55 156 C57.64 156 60.28 156 63 156 C63.38133299 157.9914056 63.71325582 159.99279077 64 162 C63 163 63 163 60.31570339 163.12304783 C59.10723279 163.12212604 57.89876219 163.12120424 56.65367126 163.12025452 C55.98311425 163.12110894 55.31255724 163.12196337 54.62168032 163.12284368 C52.35835602 163.12450037 50.09510466 163.11897407 47.83178711 163.11352539 C46.21589662 163.11324353 44.60000601 163.11340122 42.9841156 163.1139679 C38.5834776 163.11425593 34.18286661 163.10835829 29.78223491 163.10139394 C25.1884479 163.09516134 20.59466034 163.09455668 16.00086975 163.09336853 C7.29565229 163.09025494 -1.40955268 163.08204117 -10.11476463 163.07201904 C-20.02269918 163.06085877 -29.93063431 163.05534767 -39.83857358 163.05032361 C-60.2257227 163.03985858 -80.61286057 163.0222586 -101 163 C-101 160.69 -101 158.38 -101 156 C-98.03 156 -95.06 156 -92 156 C-92 139.83 -92 123.66 -92 107 C-90.68 107.66 -89.36 108.32 -88 109 C-88 109.99 -88 110.98 -88 112 C-86.68 112 -85.36 112 -84 112 C-84 111.34 -84 110.68 -84 110 C-81.36 110.33 -78.72 110.66 -76 111 C-75.34 109.68 -74.68 108.36 -74 107 C-73.01 107 -72.02 107 -71 107 C-71 123.17 -71 139.34 -71 156 C-69.68 156 -68.36 156 -67 156 C-67 150.06 -67 144.12 -67 138 C-66.34 138 -65.68 138 -65 138 C-65 136.02 -65 134.04 -65 132 C-64.01 132 -63.02 132 -62 132 C-62.00222061 131.41863785 -62.00444122 130.8372757 -62.00672913 130.23829651 C-62.02895658 124.15439472 -62.04397907 118.07050458 -62.05493164 111.98657227 C-62.05994161 109.71996593 -62.06675141 107.4533628 -62.07543945 105.18676758 C-62.08765172 101.9174724 -62.09326182 98.64822018 -62.09765625 95.37890625 C-62.10281754 94.37541641 -62.10797882 93.37192657 -62.11329651 92.33802795 C-62.11375766 86.47491567 -61.75803914 80.81513068 -61 75 C-60.34 75 -59.68 75 -59 75 C-59.0928125 73.4840625 -59.0928125 73.4840625 -59.1875 71.9375 C-58.98146304 67.61072379 -57.83398975 64.88805826 -56 61 C-55.16548375 58.20347152 -54.82910241 55.58204815 -54.68359375 52.671875 C-54.62075195 51.47304687 -54.62075195 51.47304687 -54.55664062 50.25 C-54.51732422 49.425 -54.47800781 48.6 -54.4375 47.75 C-54.37272461 46.48929688 -54.37272461 46.48929688 -54.30664062 45.203125 C-54.20091457 43.13559329 -54.09998705 41.06781719 -54 39 C-52.02 38.505 -52.02 38.505 -50 38 C-49.98541748 38.55872803 -49.97083496 39.11745605 -49.95581055 39.69311523 C-49.88039202 42.27520052 -49.78405119 44.85612184 -49.6875 47.4375 C-49.65366211 48.75524414 -49.65366211 48.75524414 -49.61914062 50.09960938 C-49.37116673 56.20878447 -48.21734669 61.31410509 -46 67 C-45.45833333 68.5 -44.91666667 70 -44.375 71.5 C-44.13523438 72.1496875 -43.89546875 72.799375 -43.6484375 73.46875 C-41.74782937 80.88799137 -41.86236296 88.55627769 -41.90234375 96.16015625 C-41.9037587 97.19063583 -41.90517365 98.22111542 -41.90663147 99.28282166 C-41.91218553 102.54274519 -41.9247293 105.80259757 -41.9375 109.0625 C-41.94252094 111.28580629 -41.94708281 113.50911367 -41.95117188 115.73242188 C-41.96213987 121.1549718 -41.9788316 126.57748081 -42 132 C-41.01 132.33 -40.02 132.66 -39 133 C-36.68616529 137.91881418 -36.75807336 142.5683296 -36.875 147.875 C-36.88402344 148.65875 -36.89304687 149.4425 -36.90234375 150.25 C-36.92571937 152.16680055 -36.96158347 154.08344191 -37 156 C-36.01 156 -35.02 156 -34 156 C-34.08378906 155.07316406 -34.16757813 154.14632812 -34.25390625 153.19140625 C-34.40666016 151.39509766 -34.40666016 151.39509766 -34.5625 149.5625 C-34.66691406 148.36753906 -34.77132812 147.17257813 -34.87890625 145.94140625 C-34.93884766 144.48541016 -34.93884766 144.48541016 -35 143 C-34.67 142.67 -34.34 142.34 -34 142 C-33.75322621 139.61452 -33.61651741 137.22990308 -33.4765625 134.8359375 C-33 132 -33 132 -31.46875 129.03125 C-28.9237436 123.42979319 -29.72945331 117.13671121 -29.875 111.125 C-29.91812628 108.66933884 -29.95741047 106.21360609 -29.9921875 103.7578125 C-30.01651855 102.6764502 -30.04084961 101.59508789 -30.06591797 100.48095703 C-30 98 -30 98 -29 97 C-28.7690848 94.6288026 -28.59686685 92.2796038 -28.46484375 89.90234375 C-28.42186661 89.19348526 -28.37888947 88.48462677 -28.33460999 87.75428772 C-28.1978709 85.48226118 -28.06761927 83.20991435 -27.9375 80.9375 C-27.84612902 79.40036525 -27.75433766 77.86325542 -27.66210938 76.32617188 C-27.43652085 72.55105359 -27.2167512 68.77563558 -27 65 C-25.35 64.67 -23.7 64.34 -22 64 C-21.67916277 68.85365558 -21.36862378 73.70789988 -21.0625 78.5625 C-21.01576141 79.29553345 -20.96902283 80.02856689 -20.92086792 80.78381348 C-20.39163063 89.16004423 -19.94278869 97.52663692 -19.75 105.91796875 C-19.73279404 106.62486343 -19.71558807 107.33175812 -19.69786072 108.06007385 C-19.61798341 111.44341152 -19.55601107 114.82503241 -19.51782227 118.20922852 C-19.49260498 119.42408936 -19.4673877 120.6389502 -19.44140625 121.890625 C-19.42122437 123.48438965 -19.42122437 123.48438965 -19.40063477 125.11035156 C-18.94401803 128.40377979 -17.77753194 130.22674089 -16 133 C-14.66917227 140.62201334 -14.9011971 148.28239603 -15 156 C-13.35 156 -11.7 156 -10 156 C-10.00222061 155.39994644 -10.00444122 154.79989288 -10.00672913 154.18165588 C-10.1098068 124.84478632 -10.06204412 95.52045517 -9.5625 66.1875 C-9.5330278 64.32872726 -9.5330278 64.32872726 -9.50296021 62.43240356 C-9.44615913 58.92747067 -9.38263603 55.42273477 -9.31640625 51.91796875 C-9.29968872 50.88096832 -9.28297119 49.8439679 -9.26574707 48.77554321 C-9.24580688 47.81989471 -9.2258667 46.86424622 -9.20532227 45.87963867 C-9.18977798 45.05308273 -9.1742337 44.22652679 -9.15821838 43.37492371 C-8.98983244 40.84738068 -8.54835014 38.47069291 -8 36 C-7.01 36 -6.02 36 -5 36 C-5 34.35 -5 32.7 -5 31 C-4.34 31 -3.68 31 -3 31 C-1.75516181 23.67620198 -1.63861345 16.33474191 -1.39453125 8.921875 C-1.35714844 7.91898438 -1.31976563 6.91609375 -1.28125 5.8828125 C-1.25095703 4.96902832 -1.22066406 4.05524414 -1.18945312 3.11376953 C-1 1 -1 1 0 0 Z " fill="#BE9E6E" transform="translate(105,2)"/>
<path d="M0 0 C0.99 0.33 1.98 0.66 3 1 C3.02505615 1.62455078 3.0501123 2.24910156 3.07592773 2.89257812 C3.19300381 5.76187123 3.31521751 8.63092425 3.4375 11.5 C3.47681641 12.48226563 3.51613281 13.46453125 3.55664062 14.4765625 C3.79760617 20.0373059 4.21921169 25.48855309 5 31 C5.99 31.33 6.98 31.66 8 32 C7.67 33.32 7.34 34.64 7 36 C8.32 36.33 9.64 36.66 11 37 C11.15496974 48.03242762 11.30312735 59.06492476 11.4429636 70.09755516 C11.50812488 75.22231374 11.57549442 80.34702206 11.64819336 85.47167969 C11.71847291 90.43185131 11.78258278 95.39207016 11.84269524 100.35237503 C11.86647869 102.22988323 11.89235906 104.10736626 11.92053413 105.98481369 C12.06074599 115.41886082 12.06834824 124.81219576 11.57006836 134.23681641 C11.5105504 135.39213395 11.5105504 135.39213395 11.44983006 136.57079124 C11.12756074 141.87243926 11.12756074 141.87243926 10 143 C9.84784826 145.28812814 9.77813508 147.58199128 9.75 149.875 C9.71132812 151.75832031 9.71132812 151.75832031 9.671875 153.6796875 C9.69865374 156.97035542 9.69865374 156.97035542 11.515625 158.9453125 C12.00546875 159.29335937 12.4953125 159.64140625 13 160 C12 161 12 161 10.17137146 161.12025452 C9.37417191 161.11803391 8.57697235 161.11581329 7.75561523 161.11352539 C6.85475693 161.11344986 5.95389862 161.11337433 5.02574158 161.11329651 C4.04658279 161.10813522 3.06742401 161.10297394 2.05859375 161.09765625 C1.06118668 161.0962413 0.0637796 161.09482635 -0.96385193 161.09336853 C-4.16343124 161.08775114 -7.36294169 161.07519571 -10.5625 161.0625 C-12.72591045 161.05748724 -14.88932199 161.05292395 -17.05273438 161.04882812 C-22.36851629 161.03777606 -27.68424646 161.02049979 -33 161 C-33 157.04 -33 153.08 -33 149 C-33.66 148.67 -34.32 148.34 -35 148 C-35.042721 146.33388095 -35.04063832 144.66617115 -35 143 C-34.67 142.67 -34.34 142.34 -34 142 C-33.75322621 139.61452 -33.61651741 137.22990308 -33.4765625 134.8359375 C-33 132 -33 132 -31.46875 129.03125 C-28.9237436 123.42979319 -29.72945331 117.13671121 -29.875 111.125 C-29.91812628 108.66933884 -29.95741047 106.21360609 -29.9921875 103.7578125 C-30.01651855 102.6764502 -30.04084961 101.59508789 -30.06591797 100.48095703 C-30 98 -30 98 -29 97 C-28.7690848 94.6288026 -28.59686685 92.2796038 -28.46484375 89.90234375 C-28.42186661 89.19348526 -28.37888947 88.48462677 -28.33460999 87.75428772 C-28.1978709 85.48226118 -28.06761927 83.20991435 -27.9375 80.9375 C-27.84612902 79.40036525 -27.75433766 77.86325542 -27.66210938 76.32617188 C-27.43652085 72.55105359 -27.2167512 68.77563558 -27 65 C-24.525 64.505 -24.525 64.505 -22 64 C-21.67916277 68.85365558 -21.36862378 73.70789988 -21.0625 78.5625 C-21.01576141 79.29553345 -20.96902283 80.02856689 -20.92086792 80.78381348 C-20.39163063 89.16004423 -19.94278869 97.52663692 -19.75 105.91796875 C-19.73279404 106.62486343 -19.71558807 107.33175812 -19.69786072 108.06007385 C-19.61798341 111.44341152 -19.55601107 114.82503241 -19.51782227 118.20922852 C-19.49260498 119.42408936 -19.4673877 120.6389502 -19.44140625 121.890625 C-19.42795166 122.95313477 -19.41449707 124.01564453 -19.40063477 125.11035156 C-18.94401803 128.40377979 -17.77753194 130.22674089 -16 133 C-14.66917227 140.62201334 -14.9011971 148.28239603 -15 156 C-13.35 156 -11.7 156 -10 156 C-10.00222061 155.39994644 -10.00444122 154.79989288 -10.00672913 154.18165588 C-10.1098068 124.84478632 -10.06204412 95.52045517 -9.5625 66.1875 C-9.54285187 64.94831818 -9.52320374 63.70913635 -9.50296021 62.43240356 C-9.44615913 58.92747067 -9.38263603 55.42273477 -9.31640625 51.91796875 C-9.29968872 50.88096832 -9.28297119 49.8439679 -9.26574707 48.77554321 C-9.23583679 47.34207047 -9.23583679 47.34207047 -9.20532227 45.87963867 C-9.18977798 45.05308273 -9.1742337 44.22652679 -9.15821838 43.37492371 C-8.98983244 40.84738068 -8.54835014 38.47069291 -8 36 C-7.01 36 -6.02 36 -5 36 C-5 34.35 -5 32.7 -5 31 C-4.34 31 -3.68 31 -3 31 C-1.75516181 23.67620198 -1.63861345 16.33474191 -1.39453125 8.921875 C-1.35714844 7.91898438 -1.31976563 6.91609375 -1.28125 5.8828125 C-1.25095703 4.96902832 -1.22066406 4.05524414 -1.18945312 3.11376953 C-1 1 -1 1 0 0 Z " fill="#CCB27D" transform="translate(105,2)"/>
<path d="M0 0 C0.99 0 1.98 0 3 0 C3 3.3 3 6.6 3 10 C3.66 10 4.32 10 5 10 C5 12.64 5 15.28 5 18 C5.99 18 6.98 18 8 18 C8 40.11 8 62.22 8 85 C9.32 85 10.64 85 12 85 C12 68.17 12 51.34 12 34 C18.22995144 34.69221683 23.14336425 35.4027357 29 37 C29 38.65 29 40.3 29 42 C30.65 42.33 32.3 42.66 34 43 C34 56.86 34 70.72 34 85 C36.64 85 39.28 85 42 85 C42.38133299 86.9914056 42.71325582 88.99279077 43 91 C42 92 42 92 39.31570339 92.12304783 C38.10723279 92.12212604 36.89876219 92.12120424 35.65367126 92.12025452 C34.98311425 92.12110894 34.31255724 92.12196337 33.62168032 92.12284368 C31.35835602 92.12450037 29.09510466 92.11897407 26.83178711 92.11352539 C25.21589662 92.11324353 23.60000601 92.11340122 21.9841156 92.1139679 C17.5834776 92.11425593 13.18286661 92.10835829 8.78223491 92.10139394 C4.1884479 92.09516134 -0.40533966 92.09455668 -4.99913025 92.09336853 C-13.70434771 92.09025494 -22.40955268 92.08204117 -31.11476463 92.07201904 C-41.02269918 92.06085877 -50.93063431 92.05534767 -60.83857358 92.05032361 C-81.2257227 92.03985858 -101.61286057 92.0222586 -122 92 C-122 89.69 -122 87.38 -122 85 C-117.05 84.505 -117.05 84.505 -112 84 C-111.34 85.32 -110.68 86.64 -110 88 C-110.66 88 -111.32 88 -112 88 C-112 88.99 -112 89.98 -112 91 C-111.01 90.505 -111.01 90.505 -110 90 C-108.36664808 89.88127427 -106.72872646 89.82290908 -105.09130859 89.79467773 C-104.07040131 89.77473251 -103.04949402 89.75478729 -101.99765015 89.73423767 C-100.33978989 89.70916893 -100.33978989 89.70916893 -98.6484375 89.68359375 C-97.5192691 89.66281265 -96.39010071 89.64203156 -95.22671509 89.62062073 C-91.60954028 89.55508665 -87.99229119 89.49622226 -84.375 89.4375 C-81.92707556 89.39431846 -79.47915872 89.35070429 -77.03125 89.30664062 C-71.0209125 89.19940133 -65.01050065 89.09764213 -59 89 C-59 88.34 -59 87.68 -59 87 C-57.35 86.67 -55.7 86.34 -54 86 C-54 87.32 -54 88.64 -54 90 C-31.725 89.505 -31.725 89.505 -9 89 C-10.485 87.02 -10.485 87.02 -12 85 C-12.328125 81.80078125 -12.328125 81.80078125 -12.25 78.3125 C-12.23453125 77.15363281 -12.2190625 75.99476563 -12.203125 74.80078125 C-12 72 -12 72 -11 71 C-10.84417697 69.65984779 -10.74955858 68.31241097 -10.68359375 66.96484375 C-10.64169922 66.15595703 -10.59980469 65.34707031 -10.55664062 64.51367188 C-10.51732422 63.66353516 -10.47800781 62.81339844 -10.4375 61.9375 C-10.37272461 60.65649414 -10.37272461 60.65649414 -10.30664062 59.34960938 C-10.20023298 57.23327963 -10.09958269 55.11666187 -10 53 C-9.67 53 -9.34 53 -9 53 C-9 63.56 -9 74.12 -9 85 C-7.68 85 -6.36 85 -5 85 C-5.00444122 84.23436234 -5.00888245 83.46872467 -5.01345825 82.67988586 C-5.05357314 75.45582408 -5.08400377 68.2318165 -5.10362434 61.00767231 C-5.11405065 57.2938848 -5.12818869 53.58018952 -5.15087891 49.86645508 C-5.17264856 46.28085107 -5.1845773 42.69533565 -5.18975449 39.10967064 C-5.19344285 37.74336541 -5.20064534 36.3770649 -5.21146011 35.0107975 C-5.22602896 33.09359105 -5.22681738 31.176295 -5.22705078 29.2590332 C-5.231492 28.16871292 -5.23593323 27.07839264 -5.24050903 25.95503235 C-4.99402132 22.92654253 -4.28025509 20.73867898 -3 18 C-2.34 18 -1.68 18 -1 18 C-0.67 12.06 -0.34 6.12 0 0 Z " fill="#B38D61" transform="translate(126,73)"/>
<path d="M0 0 C0.99 0 1.98 0 3 0 C3 3.3 3 6.6 3 10 C3.66 10 4.32 10 5 10 C5 12.64 5 15.28 5 18 C5.99 18 6.98 18 8 18 C8 42 8 66 8 90 C4.37 90 0.74 90 -3 90 C-3 89.34 -3 88.68 -3 88 C-3.99 87.67 -4.98 87.34 -6 87 C-5.91553714 78.74162541 -5.82063096 70.48346444 -5.71247292 62.22536945 C-5.66257455 58.3905987 -5.61624413 54.55585463 -5.578125 50.72094727 C-5.54119031 47.01850263 -5.49480853 43.31628479 -5.44193649 39.61403465 C-5.42343593 38.20312678 -5.408312 36.79217037 -5.39665604 35.38118935 C-5.37971995 33.40157109 -5.34955229 31.42207953 -5.31884766 29.44262695 C-5.30552399 28.31677689 -5.29220032 27.19092682 -5.2784729 26.03096008 C-4.99849287 22.98359605 -4.28908048 20.75860814 -3 18 C-2.34 18 -1.68 18 -1 18 C-0.505 9.09 -0.505 9.09 0 0 Z " fill="#BF9E70" transform="translate(126,73)"/>
<path d="M0 0 C1.32 0 2.64 0 4 0 C4.66 11.55 5.32 23.1 6 35 C4.02 35.66 2.04 36.32 0 37 C-1.28605661 39.57211322 -1.21043941 41.56906966 -1.31640625 44.4453125 C-1.35830078 45.52167969 -1.40019531 46.59804687 -1.44335938 47.70703125 C-1.50233398 49.39892578 -1.50233398 49.39892578 -1.5625 51.125 C-1.60568359 52.26066406 -1.64886719 53.39632812 -1.69335938 54.56640625 C-1.7996604 57.37747768 -1.90169405 60.18863945 -2 63 C-2.99 63.495 -2.99 63.495 -4 64 C-4.02465622 59.74585377 -4.04283899 55.49174502 -4.05493164 51.23754883 C-4.05997101 49.78929927 -4.06680253 48.34105483 -4.07543945 46.89282227 C-4.08752247 44.81525412 -4.09323211 42.73775303 -4.09765625 40.66015625 C-4.10289307 39.40855713 -4.10812988 38.15695801 -4.11352539 36.86743164 C-4 34 -4 34 -3 33 C-2.78135099 30.64041276 -2.62121774 28.30262346 -2.5 25.9375 C-2.45939453 25.23101318 -2.41878906 24.52452637 -2.37695312 23.79663086 C-2.24686301 21.53131164 -2.12273099 19.26572916 -2 17 C-1.83860554 14.0205069 -1.67121534 11.04144304 -1.5 8.0625 C-1.44682617 7.0250061 -1.44682617 7.0250061 -1.39257812 5.96655273 C-1.11280181 1.11280181 -1.11280181 1.11280181 0 0 Z " fill="#F0E3A2" transform="translate(79,66)"/>
<path d="M0 0 C0.66 0 1.32 0 2 0 C3.125 4.75 3.125 4.75 2 7 C2.13596854 8.92297224 2.13596854 8.92297224 2.5 11 C3.11111111 14.77777778 3.11111111 14.77777778 2 17 C1.78622279 22.60703213 1.78622279 22.60703213 3 28 C2.69517354 29.34013795 2.35889686 30.6733192 2 32 C1.93403637 33.49869371 1.91438408 35.00003344 1.9375 36.5 C1.95103516 37.62921875 1.95103516 37.62921875 1.96484375 38.78125 C1.98224609 39.87953125 1.98224609 39.87953125 2 41 C2 45 2 45 1.4375 48.4375 C0.81254916 51.82164371 0.81254916 51.82164371 1.5625 54.375 C2.23824266 58.42945594 1.03578716 62.07085698 0 66 C-0.33 66 -0.66 66 -1 66 C-1.74429652 60.02679892 -2.16170965 54.21561614 -2.125 48.19921875 C-2.12234131 47.38652023 -2.11968262 46.57382172 -2.11694336 45.73649597 C-2.04646849 36.41357391 -1.53756784 27.11801577 -1 17.8125 C-0.90316795 16.06838584 -0.80681207 14.32424518 -0.7109375 12.58007812 C-0.47940894 8.38639494 -0.24157078 4.19311619 0 0 Z " fill="#E4D59A" transform="translate(97,62)"/>
<path d="M0 0 C0.99 0.33 1.98 0.66 3 1 C3.02505615 1.62455078 3.0501123 2.24910156 3.07592773 2.89257812 C3.19300381 5.76187123 3.31521751 8.63092425 3.4375 11.5 C3.47681641 12.48226563 3.51613281 13.46453125 3.55664062 14.4765625 C3.79760617 20.0373059 4.21921169 25.48855309 5 31 C5.99 31.33 6.98 31.66 8 32 C7.34 32.66 6.68 33.32 6 34 C5.34 34 4.68 34 4 34 C4 33.01 4 32.02 4 31 C1.69 31 -0.62 31 -3 31 C-2.8453125 30.08992188 -2.690625 29.17984375 -2.53125 28.2421875 C-1.61657687 21.8491376 -1.60677273 15.36772745 -1.39453125 8.921875 C-1.35714844 7.91898438 -1.31976563 6.91609375 -1.28125 5.8828125 C-1.25095703 4.96902832 -1.22066406 4.05524414 -1.18945312 3.11376953 C-1 1 -1 1 0 0 Z " fill="#AB8656" transform="translate(105,2)"/>
<path d="M0 0 C0.33 0 0.66 0 1 0 C1 14.85 1 29.7 1 45 C2.32 45 3.64 45 5 45 C5 39.06 5 33.12 5 27 C6.98 27.33 8.96 27.66 11 28 C10.9278125 28.65226562 10.855625 29.30453125 10.78125 29.9765625 C10.28243834 34.6737056 9.87548754 39.26852656 10 44 C9.360625 44.28875 8.72125 44.5775 8.0625 44.875 C5.84793921 45.82823451 5.84793921 45.82823451 5 48 C3.35 48 1.7 48 0 48 C0 32.16 0 16.32 0 0 Z " fill="#B48E60" transform="translate(33,113)"/>
<path d="M0 0 C0.99 0 1.98 0 3 0 C3.17456339 4.0619557 3.2809442 8.12294587 3.375 12.1875 C3.45041016 13.91323242 3.45041016 13.91323242 3.52734375 15.67382812 C3.67390075 24.10085591 3.67390075 24.10085591 1.65087891 26.80004883 C0 28.09375 0 28.09375 -3 30 C-3.50265692 33.21160696 -3.50265692 33.21160696 -3 36 C-3.99 36 -4.98 36 -6 36 C-6.37402612 30.88830974 -5.13463962 27.61082158 -3 23 C-2.16625868 20.2078789 -1.83990244 17.61372319 -1.71875 14.70703125 C-1.68136719 13.91232422 -1.64398438 13.11761719 -1.60546875 12.29882812 C-1.53466004 10.62957827 -1.46435444 8.960307 -1.39453125 7.29101562 C-1.10197685 1.10197685 -1.10197685 1.10197685 0 0 Z " fill="#CFB981" transform="translate(52,40)"/>
<path d="M0 0 C0.99 0 1.98 0 3 0 C3 3.3 3 6.6 3 10 C3.66 10 4.32 10 5 10 C5 12.64 5 15.28 5 18 C4.21625 18.2475 3.4325 18.495 2.625 18.75 C-0.00204294 19.74728209 -0.00204294 19.74728209 -1.13818359 21.54785156 C-2.40194972 25.14367791 -2.35885251 28.7147891 -2.4140625 32.484375 C-2.43342865 33.29996887 -2.4527948 34.11556274 -2.4727478 34.95587158 C-2.53239575 37.55380892 -2.57886942 40.15179093 -2.625 42.75 C-2.66319342 44.51434194 -2.70224595 46.27866551 -2.7421875 48.04296875 C-2.83808505 52.36182946 -2.92217047 56.68077744 -3 61 C-3.33 61 -3.66 61 -4 61 C-4 47.14 -4 33.28 -4 19 C-3.01 18.67 -2.02 18.34 -1 18 C-0.505 9.09 -0.505 9.09 0 0 Z " fill="#D8BC88" transform="translate(126,73)"/>
<path d="M0 0 C0.33 0 0.66 0 1 0 C1.33 5.28 1.66 10.56 2 16 C2.33 14.68 2.66 13.36 3 12 C3.66 12 4.32 12 5 12 C5.33 9.36 5.66 6.72 6 4 C6.33 4 6.66 4 7 4 C7.33 8.62 7.66 13.24 8 18 C6.02 18.66 4.04 19.32 2 20 C0.71394339 22.57211322 0.78956059 24.56906966 0.68359375 27.4453125 C0.64169922 28.52167969 0.59980469 29.59804687 0.55664062 30.70703125 C0.49766602 32.39892578 0.49766602 32.39892578 0.4375 34.125 C0.39431641 35.26066406 0.35113281 36.39632812 0.30664062 37.56640625 C0.2003396 40.37747768 0.09830595 43.18863945 0 46 C-0.99 46.495 -0.99 46.495 -2 47 C-2.02465622 42.74585377 -2.04283899 38.49174502 -2.05493164 34.23754883 C-2.05997101 32.78929927 -2.06680253 31.34105483 -2.07543945 29.89282227 C-2.08752247 27.81525412 -2.09323211 25.73775303 -2.09765625 23.66015625 C-2.10289307 22.40855713 -2.10812988 21.15695801 -2.11352539 19.86743164 C-2 17 -2 17 -1 16 C-0.76321284 13.30764224 -0.57801975 10.63501844 -0.4375 7.9375 C-0.39431641 7.17888672 -0.35113281 6.42027344 -0.30664062 5.63867188 C-0.20026367 3.75934562 -0.09960066 1.87969756 0 0 Z " fill="#E3CB9A" transform="translate(77,83)"/>
<path d="M0 0 C0.33 0 0.66 0 1 0 C1.33 3.63 1.66 7.26 2 11 C2.33 11 2.66 11 3 11 C3.08089542 13.77141717 3.14044062 16.54047819 3.1875 19.3125 C3.22520508 20.49102539 3.22520508 20.49102539 3.26367188 21.69335938 C3.27817383 22.8293457 3.27817383 22.8293457 3.29296875 23.98828125 C3.31653442 25.03302612 3.31653442 25.03302612 3.34057617 26.09887695 C2.89035587 28.61204219 2.02256793 29.48270684 0 31 C-3.1875 31.1875 -3.1875 31.1875 -6 31 C-6.07347656 29.28490234 -6.07347656 29.28490234 -6.1484375 27.53515625 C-6.22345189 26.04424527 -6.29900028 24.55336108 -6.375 23.0625 C-6.42140625 21.93038086 -6.42140625 21.93038086 -6.46875 20.77539062 C-6.5726315 18.84492605 -6.77895614 16.92057919 -7 15 C-7.66 14.67 -8.32 14.34 -9 14 C-8.34 12.68 -7.68 11.36 -7 10 C-4.62409858 13.70416126 -4.79499714 16.92984573 -4.875 21.25 C-4.89304687 22.51328125 -4.91109375 23.7765625 -4.9296875 25.078125 C-4.95289062 26.04234375 -4.97609375 27.0065625 -5 28 C-3.35 28 -1.7 28 0 28 C0 18.76 0 9.52 0 0 Z " fill="#BC9968" transform="translate(95,130)"/>
<path d="M0 0 C0.33 0 0.66 0 1 0 C3.3983656 5.63491434 3.25750942 10.85932877 3.1953125 16.8671875 C3.1924826 17.90191193 3.18965271 18.93663635 3.18673706 20.00271606 C3.17558048 23.29359714 3.15048397 26.58420178 3.125 29.875 C3.11496437 32.11197522 3.10583953 34.34895473 3.09765625 36.5859375 C3.07565595 42.0573853 3.04222338 47.52867289 3 53 C2.34 53 1.68 53 1 53 C0.82813577 48.52101705 0.66243591 44.04183477 0.5 39.5625 C0.47599121 38.90261078 0.45198242 38.24272156 0.42724609 37.56283569 C0.09586928 28.33120188 -0.08483327 19.13048546 0.0625 9.89453125 C0.20775076 7.05900067 0.20775076 7.05900067 -1 5 C-0.72057545 3.32345271 -0.39171753 1.65391846 0 0 Z " fill="#DEBC8D" transform="translate(60,81)"/>
<path d="M0 0 C6.22995144 0.69221683 11.14336425 1.4027357 17 3 C16.67 4.32 16.34 5.64 16 7 C14.96875 6.814375 13.9375 6.62875 12.875 6.4375 C8.63370008 5.77941312 8.63370008 5.77941312 3 7 C2.67 13.6 2.34 20.2 2 27 C1.67 27 1.34 27 1 27 C0.67 18.09 0.34 9.18 0 0 Z " fill="#C5A06E" transform="translate(138,107)"/>
<path d="M0 0 C0.99 0 1.98 0 3 0 C3 14.85 3 29.7 3 45 C2.67 45 2.34 45 2 45 C2 37.41 2 29.82 2 22 C1.34 22 0.68 22 0 22 C0 14.74 0 7.48 0 0 Z " fill="#CEAE7C" transform="translate(131,91)"/>
<path d="M0 0 C0.99 0.33 1.98 0.66 3 1 C3.05411124 3.41696872 3.09372278 5.83271787 3.125 8.25 C3.15013672 9.27287109 3.15013672 9.27287109 3.17578125 10.31640625 C3.21213482 14.0608235 3.07944349 16.82352727 1 20 C1.66 20 2.32 20 3 20 C2 22 2 22 0 23 C-0.1954384 20.10450497 -0.38161395 17.20891002 -0.5625 14.3125 C-0.61857422 13.49587891 -0.67464844 12.67925781 -0.73242188 11.83789062 C-0.98341571 7.70485877 -1.11127743 4.04175718 0 0 Z " fill="#D9C188" transform="translate(97,38)"/>
<path d="M0 0 C0.33 0.66 0.66 1.32 1 2 C1.66 2 2.32 2 3 2 C2.67 4.64 2.34 7.28 2 10 C2.66 10 3.32 10 4 10 C4 11.65 4 13.3 4 15 C3.34 14.34 2.68 13.68 2 13 C1.01 13.66 0.02 14.32 -1 15 C-1.99 14.67 -2.98 14.34 -4 14 C-3.67 13.67 -3.34 13.34 -3 13 C-2.71606022 10.48510484 -2.5518876 7.97010418 -2.37890625 5.4453125 C-2 3 -2 3 0 0 Z " fill="#C7A871" transform="translate(74,131)"/>
<path d="M0 0 C1.9375 0.375 1.9375 0.375 4 1 C6.53186511 6.06373022 2.595412 14.75793201 1 20 C0.67 20 0.34 20 0 20 C-0.83854735 13.09811029 -1.01593448 6.88577812 0 0 Z " fill="#D0BA7D" transform="translate(44,77)"/>
<path d="M0 0 C0.99 0 1.98 0 3 0 C3 4.95 3 9.9 3 15 C1.68 15 0.36 15 -1 15 C-1.02685412 12.68756208 -1.04632841 10.3750373 -1.0625 8.0625 C-1.07410156 6.77472656 -1.08570313 5.48695312 -1.09765625 4.16015625 C-1 1 -1 1 0 0 Z " fill="#BF9C6F" transform="translate(52,40)"/>
<path d="M0 0 C1.67542976 0.28604898 3.34385343 0.61781233 5 1 C5.33 3.31 5.66 5.62 6 8 C6.99 8.33 7.98 8.66 9 9 C8.34 9.66 7.68 10.32 7 11 C6.34 11 5.68 11 5 11 C5 10.01 5 9.02 5 8 C2.69 8 0.38 8 -2 8 C-1.125 1.125 -1.125 1.125 0 0 Z " fill="#BEA168" transform="translate(104,25)"/>
<path d="M0 0 C2.63822024 3.10378852 3.70365731 5.81462924 4.6875 9.75 C4.93886719 10.73484375 5.19023438 11.7196875 5.44921875 12.734375 C5.72185547 13.85585937 5.72185547 13.85585937 6 15 C3.03 14.505 3.03 14.505 0 14 C-0.19627391 12.41773035 -0.38165538 10.83410729 -0.5625 9.25 C-0.66691406 8.36828125 -0.77132812 7.4865625 -0.87890625 6.578125 C-0.99456676 4.11567549 -0.73638695 2.33461936 0 0 Z " fill="#D4C088" transform="translate(56,65)"/>
<path d="M0 0 C1.32 0 2.64 0 4 0 C4 5.94 4 11.88 4 18 C3.67 18 3.34 18 3 18 C3 15.03 3 12.06 3 9 C1.68 9 0.36 9 -1 9 C-1.09765625 2.84765625 -1.09765625 2.84765625 -1 1 C-0.67 0.67 -0.34 0.34 0 0 Z " fill="#E0CD8A" transform="translate(79,66)"/>
<path d="M0 0 C0.99 0.33 1.98 0.66 3 1 C3 10.24 3 19.48 3 29 C2.67 29 2.34 29 2 29 C1.06144245 20.17755905 1.06144245 11.82244095 2 3 C0.68 2.67 -0.64 2.34 -2 2 C-1.34 2 -0.68 2 0 2 C0 1.34 0 0.68 0 0 Z " fill="#AC8259" transform="translate(157,115)"/>
<path d="M0 0 C4.38288453 6.57432679 3.95833655 11.03954022 2.5078125 18.5859375 C2.34023437 19.38257812 2.17265625 20.17921875 2 21 C1.67 21 1.34 21 1 21 C0.06145994 13.96094956 -0.10808032 7.09727428 0 0 Z " fill="#DBC68B" transform="translate(95,107)"/>
<path d="M0 0 C3.96 0.33 7.92 0.66 12 1 C12 2.32 12 3.64 12 5 C8.37 4.67 4.74 4.34 1 4 C0.67 2.68 0.34 1.36 0 0 Z " fill="#BD9152" transform="translate(157,159)"/>
<path d="M0 0 C1.32 0 2.64 0 4 0 C4 3.3 4 6.6 4 10 C3.01 10.33 2.02 10.66 1 11 C0.67 7.37 0.34 3.74 0 0 Z " fill="#D7BC83" transform="translate(51,55)"/>
<path d="M0 0 C2 2 2 2 2.13525391 4.52197266 C2.08288574 5.5588623 2.03051758 6.59575195 1.9765625 7.6640625 C1.925 8.78554687 1.8734375 9.90703125 1.8203125 11.0625 C1.75585938 12.238125 1.69140625 13.41375 1.625 14.625 C1.56828125 15.80835937 1.5115625 16.99171875 1.453125 18.2109375 C1.31133757 21.14121112 1.15989667 24.07066772 1 27 C0.01 27 -0.98 27 -2 27 C-1.84152588 26.45182617 -1.68305176 25.90365234 -1.51977539 25.33886719 C-0.9372438 22.71761184 -0.78793845 20.26127447 -0.68359375 17.578125 C-0.64169922 16.55332031 -0.59980469 15.52851562 -0.55664062 14.47265625 C-0.49766602 12.87744141 -0.49766602 12.87744141 -0.4375 11.25 C-0.39431641 10.17105469 -0.35113281 9.09210938 -0.30664062 7.98046875 C-0.20071011 5.32043572 -0.09863579 2.66031188 0 0 Z " fill="#D7C181" transform="translate(77,106)"/>
<path d="M0 0 C0.99 0 1.98 0 3 0 C3 3.3 3 6.6 3 10 C3.66 10.33 4.32 10.66 5 11 C3.35 10.67 1.7 10.34 0 10 C0 6.7 0 3.4 0 0 Z " fill="#B69E67" transform="translate(126,73)"/>
<path d="M0 0 C2.45605371 2.55274874 2.98802939 3.85890643 3.29296875 7.453125 C3.24076172 9.33257812 3.24076172 9.33257812 3.1875 11.25 C3.14689453 13.14492187 3.14689453 13.14492187 3.10546875 15.078125 C3.07066406 16.04234375 3.03585938 17.0065625 3 18 C4.32 18.33 5.64 18.66 7 19 C6.01 19.33 5.02 19.66 4 20 C3.34 19.67 2.68 19.34 2 19 C1.60129138 15.37537614 1.4906422 11.76792661 1.34375 8.125 C1.2303125 7.09375 1.116875 6.0625 1 5 C0.34 4.67 -0.32 4.34 -1 4 C-0.67 2.68 -0.34 1.36 0 0 Z " fill="#BD9E6D" transform="translate(87,140)"/>
<path d="M0 0 C2.475 0.495 2.475 0.495 5 1 C5 2.98 5 4.96 5 7 C4.67 6.34 4.34 5.68 4 5 C2.68 5.99 1.36 6.98 0 8 C0 5.36 0 2.72 0 0 Z " fill="#D9C287" transform="translate(125,83)"/>
<path d="M0 0 C2.625 0.375 2.625 0.375 5 1 C5 1.99 5 2.98 5 4 C5.99 4.33 6.98 4.66 8 5 C7.34 5.66 6.68 6.32 6 7 C5.34 7 4.68 7 4 7 C4 6.01 4 5.02 4 4 C2.02 3.34 0.04 2.68 -2 2 C-1.34 1.34 -0.68 0.68 0 0 Z " fill="#A68B5E" transform="translate(105,29)"/>
<path d="M0 0 C0.33 0 0.66 0 1 0 C2.23402862 4.77092956 2.11265112 9.42469446 2.0625 14.3125 C2.05798828 15.14845703 2.05347656 15.98441406 2.04882812 16.84570312 C2.03710548 18.89716649 2.01917203 20.94859273 2 23 C1.67 23 1.34 23 1 23 C0.93941406 21.86820313 0.87882812 20.73640625 0.81640625 19.5703125 C0.73200083 18.08852855 0.64735283 16.6067584 0.5625 15.125 C0.50352539 14.00544922 0.50352539 14.00544922 0.44335938 12.86328125 C0.28426376 8.80013136 0.28426376 8.80013136 -1 5 C-0.72057545 3.32345271 -0.39171753 1.65391846 0 0 Z " fill="#E5CE90" transform="translate(60,81)"/>
<path d="M0 0 C0.66 0.33 1.32 0.66 2 1 C1.835 1.7425 1.67 2.485 1.5 3.25 C0.88074304 6.19006578 0.88074304 6.19006578 1 10 C0.34 10 -0.32 10 -1 10 C-1.9765625 3.9453125 -1.9765625 3.9453125 -2 2 C-1.34 1.34 -0.68 0.68 0 0 Z " fill="#E6D095" transform="translate(97,100)"/>
<path d="M0 0 C0.33 0 0.66 0 1 0 C1.33 2.31 1.66 4.62 2 7 C0.68 7.33 -0.64 7.66 -2 8 C-1.34 5.36 -0.68 2.72 0 0 Z M2 3 C3.32 3 4.64 3 6 3 C6 4.65 6 6.3 6 8 C4.68 7.34 3.36 6.68 2 6 C2 5.01 2 4.02 2 3 Z " fill="#BC9C6B" transform="translate(72,138)"/>
<path d="M0 0 C2.475 0.495 2.475 0.495 5 1 C5.33 2.32 5.66 3.64 6 5 C3.03 4.505 3.03 4.505 0 4 C0 2.68 0 1.36 0 0 Z " fill="#BC9666" transform="translate(21,112)"/>
<path d="M0 0 C0.99 0 1.98 0 3 0 C3 2.97 3 5.94 3 9 C2.34 9 1.68 9 1 9 C0.45627049 5.94152152 0 3.11227195 0 0 Z " fill="#AE905F" transform="translate(52,40)"/>
<path d="M0 0 C1.98 0.99 1.98 0.99 4 2 C3.67 3.32 3.34 4.64 3 6 C2.01 6 1.02 6 0 6 C0 4.02 0 2.04 0 0 Z " fill="#BE8F5D" transform="translate(13,109)"/>
<path d="M0 0 C0.33 0.99 0.66 1.98 1 3 C1.66 3.33 2.32 3.66 3 4 C2.01 4.99 1.02 5.98 0 7 C-0.66 6.34 -1.32 5.68 -2 5 C-2 3.68 -2 2.36 -2 1 C-1.34 0.67 -0.68 0.34 0 0 Z " fill="#D1AB67" transform="translate(141,107)"/>
<path d="M0 0 C0.99 0 1.98 0 3 0 C3.1875 2.875 3.1875 2.875 3 6 C2.01 6.66 1.02 7.32 0 8 C0 5.36 0 2.72 0 0 Z " fill="#D6BE82" transform="translate(113,100)"/>
<path d="M0 0 C2.04795423 1.9626228 2.94976638 3.4277307 3.19921875 6.26953125 C3.18858877 8.51954383 3.12958525 10.75385562 3 13 C2.67 13 2.34 13 2 13 C1.87625 11.88625 1.7525 10.7725 1.625 9.625 C1.3534187 5.96896323 1.3534187 5.96896323 -1 4 C-0.625 1.875 -0.625 1.875 0 0 Z " fill="#E1CB93" transform="translate(56,65)"/>
<path d="M0 0 C0.66 0 1.32 0 2 0 C2 2.64 2 5.28 2 8 C1.01 8 0.02 8 -1 8 C-0.67 5.36 -0.34 2.72 0 0 Z " fill="#C8B277" transform="translate(50,59)"/>
</svg>
