<?xml version="1.0" encoding="UTF-8"?><svg id="Layer_2" xmlns="http://www.w3.org/2000/svg" viewBox="0 0 1855.375 1029.089"><g id="Layer_1-2"><path d="M1409.625,0l-261.406,5.672v871.328c19.781,0,53.656.844,101.656,2.531,48.406,1.672,88.172,2.516,119.328,2.516,147.328,0,264.141-37.875,350.422-113.641,90.5-79.562,135.75-192.156,135.75-337.797C1855.375,143.547,1706.781,0,1409.625,0ZM1578.534,671.413h-217.565l44.051-198.412c-17.236-11.309-31.281-26.989-40.578-45.496-8.121-15.869-12.674-34.013-12.674-52.977,0-45.684,26.168-85.442,64.285-105.046,16.131-8.3,34.376-12.943,53.697-12.943,19.427,0,37.846,4.736,54.073,13.131,37.934,19.684,63.923,59.354,63.923,104.857,0,19.058-4.561,37.108-12.676,52.977-9.297,18.507-23.343,34.187-40.577,45.496l44.043,198.412Z" fill="#b38f47"/><path d="M22.147,128.419c0,21.509,4.628,39.206,13.068,53.363,10.346,17.153,25.32,25.593,44.923,25.593,19.875,0,34.85-8.44,44.923-25.593,8.44-14.157,12.796-31.854,12.796-53.363V4.54h19.058v127.691c0,27.499-7.623,50.097-22.598,67.793-14.43,17.153-32.399,25.865-54.18,25.865s-40.022-8.712-54.997-26.137c-14.702-17.425-22.053-40.023-22.053-67.521v-26.137h19.059v22.326Z" fill="#363e4c" stroke="#363e4c" stroke-miterlimit="10" stroke-width="4"/><path d="M332.623,180.693h-37.572c-5.445,28.043-23.959,42.745-55.269,44.651v-18.241h2.45c17.425,0,28.587-8.985,33.216-26.41h-29.677c-15.247,0-27.771-5.717-37.572-17.425-9.802-11.708-14.702-26.41-14.702-44.106s5.173-32.399,15.519-44.379c10.618-11.979,23.687-17.969,39.206-17.969,30.221,0,49.007,18.514,49.007,54.453v50.641h35.394v18.786ZM277.625,161.635v-57.447c0-7.896-2.45-14.702-7.351-20.147-5.445-6.262-13.068-9.529-23.142-9.529-10.346,0-18.786,4.901-25.32,14.43-5.718,8.44-8.712,17.969-8.712,28.315,0,10.89,2.45,20.692,7.623,29.132,6.262,10.346,14.702,15.519,25.32,15.519l31.583-.272Z" fill="#363e4c" stroke="#363e4c" stroke-miterlimit="10" stroke-width="4"/><path d="M385.445,180.693h-57.447v-19.059h57.447v19.059Z" fill="#363e4c" stroke="#363e4c" stroke-miterlimit="10" stroke-width="4"/><path d="M439.354,180.693h-57.447v-19.059h57.447v19.059Z" fill="#363e4c" stroke="#363e4c" stroke-miterlimit="10" stroke-width="4"/><path d="M493.264,180.693h-57.447v-19.059h57.447v19.059Z" fill="#363e4c" stroke="#363e4c" stroke-miterlimit="10" stroke-width="4"/><path d="M547.173,180.693h-57.447v-19.059h57.447v19.059Z" fill="#363e4c" stroke="#363e4c" stroke-miterlimit="10" stroke-width="4"/><path d="M636.75,180.693h-93.931v-18.786h17.425c11.708,0,19.331-3.812,23.143-11.163,2.723-5.173,4.084-13.886,4.084-26.41V4.54h19.058v128.236c0,11.707-1.633,21.508-5.173,28.859h35.394v19.059Z" fill="#363e4c" stroke="#363e4c" stroke-miterlimit="10" stroke-width="4"/><path d="M690.388,180.693h-57.447v-19.059h57.447v19.059Z" fill="#363e4c" stroke="#363e4c" stroke-miterlimit="10" stroke-width="4"/><path d="M902.754,180.693h-218.627v-19.059h165.536c.272-3.539.544-6.806.544-9.801,0-46.012-24.231-72.422-66.977-72.422-23.142,0-40.295,8.985-51.185,26.954-2.723-2.995-8.168-8.44-16.608-16.88,15.519-19.331,37.845-28.86,67.521-28.86,54.18,0,89.847,35.939,89.847,92.569v8.44h29.949v19.059Z" fill="#363e4c" stroke="#363e4c" stroke-miterlimit="10" stroke-width="4"/><path d="M960.479,4.54v128.236c0,31.854-13.341,47.918-40.022,47.918h-23.687v-18.786h17.425c11.708,0,19.331-3.812,23.143-11.435,2.723-4.901,4.084-13.613,4.084-26.137V4.54h19.058Z" fill="#363e4c" stroke="#363e4c" stroke-miterlimit="10" stroke-width="4"/><path d="M1024.009,180.693h-19.058V4.54h19.058v176.154Z" fill="#363e4c" stroke="#363e4c" stroke-miterlimit="10" stroke-width="4"/><path d="M156.645,507.417h-12.524c-26.954,0-44.106-13.341-52.002-39.75-8.168,13.886-22.054,20.964-41.656,20.964-27.771,0-48.463-28.587-48.463-64.798,0-38.662,20.692-65.888,51.73-65.888h57.72v87.397c0,27.226,12.796,43.289,34.85,43.289h10.346v18.786ZM91.847,420.293v-48.19h-34.577c-21.509,0-36.211,22.053-36.211,50.641,0,27.771,14.43,50.913,35.666,50.913,22.87,0,34.578-17.696,35.122-53.363ZM63.259,338.07h-19.331v-23.143h19.331v23.143ZM98.925,338.07h-19.331v-23.143h19.331v23.143Z" fill="#363e4c" stroke="#363e4c" stroke-miterlimit="10" stroke-width="4"/><path d="M217.092,383.81v75.689c0,31.854-13.341,47.918-40.023,47.918h-23.959v-18.786h17.697c11.707,0,19.331-3.812,23.142-11.435,2.723-4.901,4.084-13.613,4.084-26.138v-67.249h19.059ZM181.153,549.073h-19.331v-23.143h19.331v23.143ZM216.819,549.073h-19.331v-23.143h19.331v23.143Z" fill="#363e4c" stroke="#363e4c" stroke-miterlimit="10" stroke-width="4"/><path d="M346.691,507.417h-46.829c-5.173,28.043-23.687,42.745-55.27,44.651v-18.242h2.45c25.32,0,38.117-13.885,38.117-46.012v-104.005h19.059v104.549h44.923v19.059Z" fill="#363e4c" stroke="#363e4c" stroke-miterlimit="10" stroke-width="4"/><path d="M406.047,383.81v75.689c0,31.854-13.341,47.918-40.023,47.918h-23.959v-18.786h17.697c11.707,0,19.331-3.812,23.142-11.435,2.723-4.901,4.084-13.613,4.084-26.138v-67.249h19.059ZM370.108,549.073h-19.331v-23.143h19.331v23.143ZM405.775,549.073h-19.331v-23.143h19.331v23.143Z" fill="#363e4c" stroke="#363e4c" stroke-miterlimit="10" stroke-width="4"/><path d="M580.842,507.417h-37.572c-5.445,28.043-23.959,42.745-55.269,44.651v-18.242h2.45c17.425,0,28.587-8.984,33.216-26.409h-29.677c-15.247,0-27.771-5.718-37.572-17.425s-14.702-26.409-14.702-44.106,5.173-32.399,15.519-44.379c10.618-11.979,23.687-17.969,39.206-17.969,30.221,0,49.007,18.514,49.007,54.453v50.641h35.394v18.786ZM525.845,488.358v-57.447c0-7.896-2.45-14.702-7.351-20.147-5.445-6.262-13.068-9.529-23.142-9.529-10.346,0-18.786,4.901-25.32,14.43-5.718,8.44-8.712,17.969-8.712,28.316,0,10.89,2.45,20.691,7.623,29.132,6.262,10.346,14.702,15.519,25.32,15.519l31.583-.272Z" fill="#363e4c" stroke="#363e4c" stroke-miterlimit="10" stroke-width="4"/><path d="M824.793,507.417h-258.105v-18.786h50.096v-157.096h20.147l-4.356,126.603c18.514-45.196,55.269-74.6,89.847-74.6,43.834,0,65.615,31.038,65.615,92.297,0,4.084,0,8.168-.272,12.523h37.028v19.059ZM767.618,488.631c.545-5.989.817-11.707.817-17.152,0-42.201-17.425-70.516-47.374-70.516-34.578,0-75.417,41.928-88.213,87.668h134.77Z" fill="#363e4c" stroke="#363e4c" stroke-miterlimit="10" stroke-width="4"/><path d="M915.191,507.417h-93.931v-18.786h17.425c11.708,0,19.331-3.812,23.143-11.162,2.723-5.174,4.084-13.886,4.084-26.41v-67.249h19.058v75.689c0,11.707-1.633,21.509-5.173,28.859h35.394v19.059ZM849.032,364.207h-19.331v-23.143h19.331v23.143ZM884.698,364.207h-19.331v-23.143h19.331v23.143Z" fill="#363e4c" stroke="#363e4c" stroke-miterlimit="10" stroke-width="4"/><path d="M974.274,331.263v128.236c0,31.854-13.341,47.918-40.022,47.918h-23.687v-18.786h17.425c11.708,0,19.33-3.812,23.143-11.435,2.723-4.901,4.084-13.613,4.084-26.138v-119.795h19.058Z" fill="#363e4c" stroke="#363e4c" stroke-miterlimit="10" stroke-width="4"/><path d="M1029.818,507.417h-19.058v-176.154h19.058v176.154Z" fill="#363e4c" stroke="#363e4c" stroke-miterlimit="10" stroke-width="4"/><path d="M159.368,834.142h-12.524c-26.954,0-44.106-13.341-52.002-39.75-8.168,13.885-22.054,20.964-41.656,20.964-27.771,0-48.463-28.588-48.463-64.799,0-38.661,20.692-65.887,51.73-65.887h57.72v87.396c0,27.227,12.796,43.29,34.85,43.29h10.346v18.786ZM94.569,747.018v-48.19h-34.577c-21.509,0-36.211,22.053-36.211,50.641,0,27.771,14.43,50.913,35.666,50.913,22.87,0,34.578-17.697,35.122-53.363ZM65.982,664.794h-19.331v-23.142h19.331v23.142ZM101.648,664.794h-19.331v-23.142h19.331v23.142Z" fill="#363e4c" stroke="#363e4c" stroke-miterlimit="10" stroke-width="4"/><path d="M212.735,834.142h-57.447v-19.059h57.447v19.059Z" fill="#363e4c" stroke="#363e4c" stroke-miterlimit="10" stroke-width="4"/><path d="M273.724,710.534v75.689c0,31.854-13.341,47.918-40.023,47.918h-23.959v-18.786h17.697c11.707,0,19.331-3.812,23.142-11.435,2.723-4.901,4.084-13.613,4.084-26.138v-67.249h19.059ZM237.785,875.798h-19.331v-23.143h19.331v23.143ZM273.452,875.798h-19.331v-23.143h19.331v23.143Z" fill="#363e4c" stroke="#363e4c" stroke-miterlimit="10" stroke-width="4"/><path d="M370.652,710.534v100.465c0,44.379-17.153,65.615-57.175,67.794v-18.242c25.32,0,38.117-13.885,38.117-46.012v-104.005h19.059Z" fill="#363e4c" stroke="#363e4c" stroke-miterlimit="10" stroke-width="4"/><path d="M479.287,834.142h-21.509c-9.802,0-17.969-3.539-24.776-10.346-7.896-7.624-11.708-18.514-11.708-32.944v-132.864h19.603v121.43c0,12.523,1.906,21.509,5.445,26.954,2.995,4.628,8.168,7.351,15.519,8.439,1.906.272,4.084.272,17.425.272v19.059Z" fill="#363e4c" stroke="#363e4c" stroke-miterlimit="10" stroke-width="4"/><path d="M532.925,834.142h-57.447v-19.059h57.447v19.059Z" fill="#363e4c" stroke="#363e4c" stroke-miterlimit="10" stroke-width="4"/><path d="M706.085,834.142h-26.954c-15.247,0-25.593-.545-31.311-1.634-10.074-1.905-20.692-6.262-32.399-13.068-11.708,6.807-22.598,11.163-32.672,13.068-5.717,1.089-16.063,1.634-31.582,1.634h-26.954v-19.059h43.018c10.074,0,19.331-2.178,27.771-6.534-12.252-5.718-22.053-14.157-28.86-25.32-6.534-10.618-9.801-22.054-9.801-34.305,0-15.52,4.9-28.588,14.974-39.206,10.891-11.707,25.593-17.425,43.834-17.425,18.514,0,33.216,5.718,44.106,17.425,9.802,10.618,14.702,23.687,14.702,39.206,0,12.251-3.267,23.687-9.801,34.305-6.807,11.163-16.608,19.603-28.86,25.32,8.44,4.356,17.697,6.534,27.771,6.534h43.017v19.059ZM615.422,797.114c12.251-5.174,21.509-12.524,28.315-22.326,6.262-8.984,9.529-18.514,9.529-28.587,0-10.618-3.267-19.331-9.801-26.138-6.807-7.351-16.336-11.163-28.315-11.163-23.687,0-37.844,16.336-37.844,37.028,0,10.073,2.995,19.603,9.257,28.587,6.807,10.074,16.608,17.425,28.86,22.599ZM608.071,669.423h-19.331v-23.143h19.331v23.143ZM643.737,669.423h-19.331v-23.143h19.331v23.143Z" fill="#363e4c" stroke="#363e4c" stroke-miterlimit="10" stroke-width="4"/><path d="M895.857,834.142h-52.819c-16.608,0-30.221-7.079-40.567-21.236-16.608,14.157-37.028,21.236-61.259,21.236h-42.745v-19.059h42.201c9.801,0,18.242-1.089,25.048-3.539,6.806-2.45,14.974-7.079,24.231-13.613-14.974-22.598-34.305-38.661-58.264-47.918l-.272-21.509c22.325-14.43,44.923-21.781,68.065-21.781,26.137,0,50.096,8.713,71.605,26.138-6.807,13.068-12.524,23.142-17.425,29.948-9.529,13.341-21.509,25.865-35.938,37.028,6.262,7.623,12.796,12.251,19.331,13.885,2.995.817,10.346,1.361,22.053,1.361h36.755v19.059ZM849.028,738.85c-11.707-5.718-18.786-8.984-20.692-9.802-9.257-3.539-18.514-5.173-27.771-5.173-16.063,0-33.216,5.173-52.002,15.52,12.252,4.628,22.598,10.891,31.31,18.241,7.624,6.262,15.792,15.791,24.776,28.043,19.603-13.341,34.305-28.859,44.379-46.829Z" fill="#363e4c" stroke="#363e4c" stroke-miterlimit="10" stroke-width="4"/><path d="M954.671,657.987v128.236c0,31.854-13.341,47.918-40.022,47.918h-23.687v-18.786h17.425c11.708,0,19.331-3.812,23.143-11.435,2.723-4.901,4.084-13.613,4.084-26.138v-119.796h19.058Z" fill="#363e4c" stroke="#363e4c" stroke-miterlimit="10" stroke-width="4"/><path d="M1022.466,834.142h-19.059v-176.154h19.059v176.154Z" fill="#363e4c" stroke="#363e4c" stroke-miterlimit="10" stroke-width="4"/><path d="M50.49,969.635c6.264,4.95,9.396,13.387,9.396,25.308,0,7.273-1.651,13.37-4.95,18.285-3.301,4.918-7.695,8.555-13.184,10.911-5.49,2.358-11.534,3.536-18.134,3.536H2.301v-65.465h21.821c11.315,0,20.104,2.475,26.368,7.425ZM34.695,1013.683c3.444-1.111,6.045-3.147,7.804-6.112,1.757-2.963,2.636-7.173,2.636-12.628,0-5.052-.791-9.058-2.373-12.022-1.582-2.963-3.919-5.102-7.014-6.415-3.094-1.313-6.994-1.97-11.705-1.97h-7.803v40.814h4.639c5.765,0,10.37-.556,13.814-1.667Z" fill="#b38f47"/><path d="M84.839,1015.956h30.308v11.719h-44.249v-65.465h43.744v11.618h-29.803v14.749h25.762l-1.642,11.518h-24.12v15.861Z" fill="#b38f47"/><path d="M169.903,962.21h14.649v.808l-23.943,64.657h-15.861l-24.044-64.657v-.808h15.154l17.073,51.018,16.972-51.018Z" fill="#b38f47"/><path d="M206.879,1015.956h30.308v11.719h-44.249v-65.465h43.744v11.618h-29.803v14.749h25.762l-1.642,11.518h-24.12v15.861Z" fill="#b38f47"/><path d="M262.747,1015.35h30.105v12.325h-44.047v-65.465h13.941v53.14Z" fill="#b38f47"/><path d="M310.077,1024.745c-4.884-2.896-8.571-6.92-11.062-12.072-2.493-5.152-3.738-11.129-3.738-17.933,0-7.542,1.516-13.856,4.546-18.942,3.031-5.085,7.054-8.855,12.072-11.315,5.017-2.457,10.59-3.688,16.72-3.688,7.004,0,12.947,1.449,17.831,4.345,4.882,2.896,8.553,6.92,11.012,12.072,2.458,5.152,3.688,11.131,3.688,17.933,0,7.544-1.5,13.857-4.496,18.942-2.998,5.086-7.005,8.857-12.022,11.314-5.018,2.458-10.592,3.688-16.72,3.688-7.005,0-12.949-1.447-17.831-4.344ZM338.062,1014.693c2.794-1.784,4.882-4.345,6.263-7.679,1.38-3.334,2.071-7.256,2.071-11.77,0-7.138-1.516-12.712-4.546-16.72-3.031-4.006-7.442-6.011-13.234-6.011-6.062,0-10.675,1.97-13.84,5.91-3.167,3.939-4.748,9.345-4.748,16.214,0,7.141,1.515,12.714,4.546,16.721,3.031,4.008,7.476,6.011,13.335,6.011,3.973,0,7.357-.892,10.153-2.677Z" fill="#b38f47"/><path d="M409.437,964.938c3.839,1.818,6.701,4.294,8.587,7.426,1.885,3.132,2.829,6.753,2.829,10.86,0,4.378-.988,8.268-2.965,11.668-1.976,3.402-4.958,6.062-8.944,7.981-3.986,1.919-8.839,2.879-14.563,2.879h-8.382v21.923h-13.941v-65.465h22.933c5.792,0,10.608.909,14.447,2.728ZM402.699,991.861c2.269-1.582,3.403-4.327,3.403-8.234,0-3.299-1.015-5.774-3.042-7.425-2.027-1.649-4.862-2.476-8.505-2.476h-8.557v20.509h7.01c4.192,0,7.422-.791,9.69-2.374Z" fill="#b38f47"/><path d="M501.067,962.21v65.465h-13.941v-40.714c-.881,2.493-2.37,5.759-4.466,9.8l-11.369,22.832h-11.063l-11.572-22.832c-2.098-4.107-3.586-7.375-4.466-9.8v40.714h-13.941v-65.465h14.75l14.952,28.691c1.144,2.223,2.222,4.495,3.232,6.819,1.01,2.323,1.819,4.361,2.425,6.112.952-3.098,2.855-7.408,5.712-12.932l15.2-28.691h14.548Z" fill="#b38f47"/><path d="M529.355,1015.956h30.308v11.719h-44.249v-65.465h43.744v11.618h-29.803v14.749h25.762l-1.642,11.518h-24.12v15.861Z" fill="#b38f47"/><path d="M629.371,962.21v65.465h-15.558l-20.581-30.51c-1.758-2.693-3.245-5.034-4.461-7.021-1.217-1.986-2.399-4.226-3.548-6.719v44.25h-13.941v-65.465h15.356l22.405,33.54c.27.404.878,1.331,1.825,2.778.946,1.449,1.808,2.813,2.584,4.092.776,1.28,1.436,2.525,1.978,3.738v-44.148h13.941Z" fill="#b38f47"/><path d="M693.523,962.21v12.224h-20.812v53.241h-13.941v-53.241h-20.912v-12.224h55.665Z" fill="#b38f47"/><path d="M714.738,1021.209l6.466-10.002c6.264,3.976,12.391,5.961,18.387,5.961,3.839,0,6.852-.606,9.042-1.818,2.188-1.212,3.283-3.031,3.283-5.455,0-1.481-.354-2.711-1.061-3.688-.707-.976-1.954-1.92-3.738-2.829-1.786-.909-4.463-2.071-8.032-3.485l-2.324-.909c-4.311-1.683-7.779-3.299-10.405-4.85-2.627-1.548-4.715-3.536-6.264-5.96-1.55-2.425-2.324-5.489-2.324-9.193,0-4.107,1.178-7.527,3.536-10.255,2.356-2.728,5.387-4.73,9.092-6.011,3.703-1.278,7.643-1.92,11.82-1.92,3.771,0,7.661.624,11.668,1.869,4.006,1.247,7.83,3.081,11.466,5.506l-6.527,9.901c-3.214-1.953-6.058-3.367-8.535-4.243-2.477-.875-5.154-1.313-8.032-1.313-3.214,0-5.64.54-7.28,1.616-1.64,1.078-2.459,2.525-2.459,4.344,0,1.146.334,2.173,1.004,3.082.669.909,1.874,1.818,3.615,2.728s4.252,1.97,7.533,3.182l2.21.809c4.284,1.616,7.749,3.132,10.395,4.546,2.644,1.415,4.87,3.436,6.679,6.062,1.807,2.627,2.712,6.029,2.712,10.204,0,4.379-1.146,8.066-3.435,11.062-2.291,2.997-5.405,5.237-9.345,6.718-3.94,1.481-8.402,2.223-13.386,2.223-10.103,0-18.69-2.626-25.762-7.88Z" fill="#b38f47"/><path d="M787.527,1024.745c-4.884-2.896-8.571-6.92-11.062-12.072-2.493-5.152-3.738-11.129-3.738-17.933,0-7.542,1.516-13.856,4.546-18.942,3.031-5.085,7.054-8.855,12.072-11.315,5.017-2.457,10.59-3.688,16.72-3.688,7.004,0,12.947,1.449,17.831,4.345,4.882,2.896,8.553,6.92,11.012,12.072,2.458,5.152,3.688,11.131,3.688,17.933,0,7.544-1.5,13.857-4.496,18.942-2.998,5.086-7.005,8.857-12.022,11.314-5.018,2.458-10.592,3.688-16.72,3.688-7.005,0-12.949-1.447-17.831-4.344ZM815.512,1014.693c2.794-1.784,4.882-4.345,6.263-7.679,1.38-3.334,2.071-7.256,2.071-11.77,0-7.138-1.516-12.712-4.546-16.72-3.031-4.006-7.442-6.011-13.234-6.011-6.062,0-10.675,1.97-13.84,5.91-3.167,3.939-4.748,9.345-4.748,16.214,0,7.141,1.515,12.714,4.546,16.721,3.031,4.008,7.476,6.011,13.335,6.011,3.973,0,7.357-.892,10.153-2.677Z" fill="#b38f47"/><path d="M863.449,1015.35h30.105v12.325h-44.047v-65.465h13.941v53.14Z" fill="#b38f47"/><path d="M909.82,1025.401c-4.243-2.457-7.324-5.791-9.244-10.001-1.919-4.209-2.879-9.008-2.879-14.396v-38.794h13.942v37.076c0,5.658,1.141,10.053,3.425,13.185s6.264,4.697,11.938,4.697c5.399,0,9.205-1.565,11.419-4.697,2.214-3.132,3.323-7.189,3.323-12.174v-38.087h13.941v38.491c0,6.667-1.279,12.107-3.838,16.315-2.561,4.21-6.047,7.273-10.457,9.193-4.412,1.92-9.514,2.879-15.306,2.879-6.601,0-12.022-1.229-16.265-3.688Z" fill="#b38f47"/><path d="M1018.423,962.21v12.224h-20.812v53.241h-13.941v-53.241h-20.912v-12.224h55.665Z" fill="#b38f47"/><path d="M1027.314,1027.675v-65.465h13.941v65.465h-13.941Z" fill="#b38f47"/><path d="M1067.067,1024.745c-4.884-2.896-8.571-6.92-11.062-12.072-2.492-5.152-3.737-11.129-3.737-17.933,0-7.542,1.515-13.856,4.546-18.942,3.03-5.085,7.055-8.855,12.072-11.315,5.017-2.457,10.591-3.688,16.72-3.688,7.004,0,12.947,1.449,17.831,4.345,4.883,2.896,8.553,6.92,11.012,12.072,2.458,5.152,3.688,11.131,3.688,17.933,0,7.544-1.499,13.857-4.495,18.942-2.998,5.086-7.006,8.857-12.022,11.314-5.019,2.458-10.592,3.688-16.72,3.688-7.006,0-12.948-1.447-17.831-4.344ZM1095.051,1014.693c2.794-1.784,4.882-4.345,6.264-7.679,1.379-3.334,2.07-7.256,2.07-11.77,0-7.138-1.515-12.712-4.546-16.72-3.03-4.006-7.442-6.011-13.234-6.011-6.062,0-10.676,1.97-13.84,5.91-3.167,3.939-4.749,9.345-4.749,16.214,0,7.141,1.516,12.714,4.547,16.721,3.03,4.008,7.476,6.011,13.335,6.011,3.974,0,7.357-.892,10.153-2.677Z" fill="#b38f47"/><path d="M1187.137,962.21v65.465h-15.559l-20.58-30.51c-1.759-2.693-3.246-5.034-4.461-7.021-1.218-1.986-2.399-4.226-3.549-6.719v44.25h-13.941v-65.465h15.355l22.406,33.54c.27.404.877,1.331,1.824,2.778.945,1.449,1.808,2.813,2.584,4.092.777,1.28,1.437,2.525,1.979,3.738v-44.148h13.941Z" fill="#b38f47"/><path d="M1196.23,1021.209l6.465-10.002c6.264,3.976,12.392,5.961,18.387,5.961,3.839,0,6.853-.606,9.042-1.818,2.188-1.212,3.283-3.031,3.283-5.455,0-1.481-.354-2.711-1.061-3.688-.707-.976-1.954-1.92-3.738-2.829-1.785-.909-4.462-2.071-8.031-3.485l-2.323-.909c-4.312-1.683-7.779-3.299-10.406-4.85-2.626-1.548-4.715-3.536-6.264-5.96-1.55-2.425-2.323-5.489-2.323-9.193,0-4.107,1.178-7.527,3.536-10.255,2.356-2.728,5.388-4.73,9.092-6.011,3.703-1.278,7.644-1.92,11.82-1.92,3.771,0,7.66.624,11.668,1.869,4.007,1.247,7.83,3.081,11.467,5.506l-6.527,9.901c-3.214-1.953-6.059-3.367-8.535-4.243-2.477-.875-5.153-1.313-8.031-1.313-3.214,0-5.64.54-7.28,1.616-1.64,1.078-2.459,2.525-2.459,4.344,0,1.146.334,2.173,1.004,3.082.669.909,1.873,1.818,3.614,2.728s4.253,1.97,7.533,3.182l2.21.809c4.284,1.616,7.749,3.132,10.395,4.546,2.644,1.415,4.869,3.436,6.679,6.062,1.808,2.627,2.712,6.029,2.712,10.204,0,4.379-1.146,8.066-3.435,11.062-2.291,2.997-5.405,5.237-9.346,6.718-3.939,1.481-8.402,2.223-13.386,2.223-10.103,0-18.689-2.626-25.761-7.88Z" fill="#b38f47"/><path d="M1328.573,1026.866v.809h-16.031l-16.44-23.842h-5.514v23.842h-13.941v-65.465h21.923c5.791,0,10.623.894,14.497,2.677,3.872,1.785,6.751,4.21,8.638,7.274,1.885,3.065,2.828,6.551,2.828,10.456,0,4.581-1.146,8.536-3.435,11.87-2.29,3.334-5.657,5.81-10.103,7.426l17.578,24.953ZM1290.587,993.022h6.295c4.128,0,7.311-.773,9.546-2.323,2.235-1.549,3.354-4.107,3.354-7.678,0-3.098-.998-5.421-2.993-6.972-1.995-1.548-4.781-2.323-8.358-2.323h-7.844v19.296Z" fill="#b38f47"/><path d="M1351.304,1015.956h30.308v11.719h-44.249v-65.465h43.744v11.618h-29.803v14.749h25.762l-1.642,11.518h-24.12v15.861Z" fill="#b38f47"/><path d="M1428.589,962.21l23.539,64.656v.809h-15.255l-5.254-15.659h-24.246l-5.152,15.659h-15.053v-.809l23.539-64.656h17.882ZM1411.213,1000.499h16.567l-8.385-24.954-8.183,24.954Z" fill="#b38f47"/><path d="M1474.556,1015.35h30.105v12.325h-44.047v-65.465h13.941v53.14Z" fill="#b38f47"/><path d="M1545.173,1015.956h30.308v11.719h-44.249v-65.465h43.744v11.618h-29.803v14.749h25.762l-1.642,11.518h-24.12v15.861Z" fill="#b38f47"/><path d="M1581.746,1021.209l6.465-10.002c6.264,3.976,12.392,5.961,18.387,5.961,3.839,0,6.853-.606,9.042-1.818,2.188-1.212,3.283-3.031,3.283-5.455,0-1.481-.354-2.711-1.061-3.688-.707-.976-1.954-1.92-3.738-2.829-1.785-.909-4.462-2.071-8.031-3.485l-2.323-.909c-4.312-1.683-7.779-3.299-10.406-4.85-2.626-1.548-4.715-3.536-6.264-5.96-1.55-2.425-2.323-5.489-2.323-9.193,0-4.107,1.178-7.527,3.536-10.255,2.356-2.728,5.388-4.73,9.092-6.011,3.703-1.278,7.644-1.92,11.82-1.92,3.771,0,7.66.624,11.668,1.869,4.007,1.247,7.83,3.081,11.467,5.506l-6.527,9.901c-3.214-1.953-6.059-3.367-8.535-4.243-2.477-.875-5.153-1.313-8.031-1.313-3.214,0-5.64.54-7.28,1.616-1.64,1.078-2.459,2.525-2.459,4.344,0,1.146.334,2.173,1.004,3.082.669.909,1.873,1.818,3.614,2.728s4.253,1.97,7.533,3.182l2.21.809c4.284,1.616,7.749,3.132,10.395,4.546,2.644,1.415,4.869,3.436,6.679,6.062,1.808,2.627,2.712,6.029,2.712,10.204,0,4.379-1.146,8.066-3.435,11.062-2.291,2.997-5.405,5.237-9.346,6.718-3.939,1.481-8.402,2.223-13.386,2.223-10.103,0-18.689-2.626-25.761-7.88Z" fill="#b38f47"/><path d="M1692.975,962.21v12.224h-20.812v53.241h-13.941v-53.241h-20.912v-12.224h55.665Z" fill="#b38f47"/><path d="M1727.728,962.21l23.539,64.656v.809h-15.255l-5.254-15.659h-24.246l-5.152,15.659h-15.053v-.809l23.539-64.656h17.882ZM1710.352,1000.499h16.567l-8.385-24.954-8.183,24.954Z" fill="#b38f47"/><path d="M1800.366,962.21v12.224h-20.812v53.241h-13.941v-53.241h-20.912v-12.224h55.665Z" fill="#b38f47"/><path d="M1822.793,1015.956h30.308v11.719h-44.249v-65.465h43.744v11.618h-29.803v14.749h25.762l-1.642,11.518h-24.12v15.861Z" fill="#b38f47"/></g></svg>
